<svg xmlns="http://www.w3.org/2000/svg" viewBox="0 0 219.35 73.52"><defs><style>.cls-1{fill:#009ada;}.cls-2{fill:#fff;}</style></defs><title>Logo new</title><g id="Слой_2" data-name="Слой 2"><g id="Layer_4" data-name="Layer 4"><path class="cls-1" d="M38.23,0V44.79H33V24H6V44.79H.8V0H6V19.75H33V0Z"/><path class="cls-1" d="M51.49,0V5.15H46.75V0Zm0,13.42V44.79H46.75V13.42Z"/><path class="cls-1" d="M60,44.79V0H81.17Q89,0,91.82,2.92t2.85,10.93q0,7.68-3,10.46T80.59,27.1l-2,0H65.23V44.79Zm5.21-21.92H77.58q7.74,0,9.93-1.54t2.18-7.09q0-6.49-1.47-8.22t-7-1.72l-2,0h-14Z"/><path class="cls-1" d="M123.16,35.31H128l0,1.15c0,3.25-1,5.54-3.06,6.84s-5.62,2-10.75,2q-8.93,0-11.72-3.17t-2.79-13.3q0-9.39,2.81-12.6t11-3.22q8.94,0,11.71,2.79T128,27.5V30H104.72c0,4.94.54,8.09,1.64,9.45s3.65,2,7.66,2q5.72,0,7.43-1c1.14-.64,1.71-2,1.71-4.18Zm0-8.93,0-1.48q0-5.08-1.72-6.61T114,16.77c-3.83,0-6.32.59-7.46,1.79s-1.71,3.8-1.71,7.82Z"/><path class="cls-1" d="M136,13.42h4.74L140.21,17l.1.1q2.82-4.44,9.28-4.43,8.92,0,8.93,8.92l0,2.17h-4.66l.1-.79c.06-.83.1-1.39.1-1.67q0-4.83-5.42-4.83-7.9,0-7.91,9.49v18.8H136Z"/><path class="cls-1" d="M179.42,0V44.79h-5.21V0Z"/><path class="cls-1" d="M204.43,4.69v40.1h-5.21V4.69H184.16V0h35.19V4.69Z"/><path class="cls-2" d="M0,69.28V55.78H7.82c2.16,0,3.58.23,4.25.69s1,1.41,1,2.88a2.7,2.7,0,0,1-2.27,2.84v0a3,3,0,0,1,2.81,3.18,3.63,3.63,0,0,1-1.1,3,6.4,6.4,0,0,1-3.85.87Zm2-7.56H7.23a7.16,7.16,0,0,0,3.22-.46c.48-.3.72-1,.72-2,0-.9-.21-1.49-.63-1.76a6,6,0,0,0-2.76-.4H2ZM2,68H8a6.37,6.37,0,0,0,3-.45c.48-.3.71-.94.71-1.91,0-1.2-.24-1.94-.71-2.22A10.53,10.53,0,0,0,7.13,63H2Z"/><path class="cls-2" d="M15.77,69.28V55.78h8.09c2,0,3.35.3,4.08.88S29,58.35,29,60s-.37,2.59-1.13,3.15-2.17.84-4.25.84H17.77v5.32Zm2-6.6h4.72a9.55,9.55,0,0,0,3.8-.47c.55-.31.83-1,.83-2.13a3.63,3.63,0,0,0-.56-2.48,4.39,4.39,0,0,0-2.67-.52H17.77Z"/><path class="cls-2" d="M42.93,59.44H41c0-1.09-.24-1.78-.71-2.07a7.82,7.82,0,0,0-3.35-.44,11.93,11.93,0,0,0-4,.42,1.86,1.86,0,0,0-.9,1.88c0,1.08.23,1.75.71,2a14.87,14.87,0,0,0,4.23.49q4.13.13,5.25.8c.74.44,1.11,1.43,1.11,3S42.83,68.2,42,68.69s-2.76.73-5.69.73c-2.54,0-4.24-.25-5.08-.74s-1.26-1.48-1.26-3v-.6h2v.33q0,1.82.72,2.25a9.07,9.07,0,0,0,3.72.44c2.28,0,3.69-.14,4.21-.44s.79-1.07.79-2.34a2,2,0,0,0-.53-1.65,4.47,4.47,0,0,0-2.25-.49l-2.07-.08-2-.08c-3-.16-4.49-1.34-4.49-3.56,0-1.53.44-2.56,1.31-3.07s2.61-.77,5.22-.77,4.36.23,5.16.71S42.93,57.87,42.93,59.44Z"/><path class="cls-2" d="M57.41,62.57H65c0,.35,0,.84,0,1.47,0,2.43-.39,3.94-1.17,4.51s-2.82.87-6.11.87q-4.68,0-6-1c-.89-.69-1.33-2.22-1.33-4.6V60.62c0-2,.49-3.33,1.48-4s3-1,6-1,4.94.21,5.81.64S65,57.69,65,59.19v.51H63v-.34c0-1.1-.29-1.78-.88-2a15.67,15.67,0,0,0-4.63-.39q-3.45,0-4.32.63c-.58.42-.87,1.46-.87,3.14l0,1.79v1.93c0,1.7.32,2.74,1,3.13s2.35.58,5.14.58c2.13,0,3.45-.18,3.95-.55s.76-1.33.76-2.9a7.5,7.5,0,0,0-.11-.83H57.41Z"/><path class="cls-2" d="M67,59.83h1.81l-.18,1.09,0,0a4.31,4.31,0,0,1,3.55-1.34q3.41,0,3.41,2.69V63H73.85l0-.23a4.74,4.74,0,0,0,0-.51c0-1-.69-1.45-2.07-1.45q-3,0-3,2.85v5.67H67Z"/><path class="cls-2" d="M81.93,59.69c2.28,0,3.77.3,4.45.91s1,1.92,1,3.95-.34,3.35-1,4-2.17.91-4.45.91-3.76-.3-4.44-.91-1-1.93-1-4,.34-3.34,1-3.95S79.65,59.69,81.93,59.69Zm0,1.15c-1.61,0-2.6.2-3,.6s-.58,1.43-.58,3.11.19,2.72.58,3.12,1.37.6,3,.6,2.61-.2,3-.6.58-1.43.58-3.12-.19-2.72-.58-3.11S83.54,60.84,81.93,60.84Z"/><path class="cls-2" d="M99.73,59.83v9.45H97.92L98.05,68l0,0c-.63.93-2,1.4-4,1.4q-4.34,0-4.33-3.3V59.83h1.81v6.29A2.12,2.12,0,0,0,92,67.84a3.81,3.81,0,0,0,2.18.43,4.75,4.75,0,0,0,2.93-.65,2.89,2.89,0,0,0,.8-2.37V59.83Z"/><path class="cls-2" d="M102.5,59.83h1.81L104.22,61l0,0c.63-.91,2-1.36,4.07-1.36,1.83,0,3.1.36,3.79,1.07s1,2,1,3.93-.35,3-1,3.7-1.94,1-3.72,1c-2,0-3.38-.42-4-1.26h0v5.17H102.5Zm5.33,1c-1.45,0-2.39.24-2.83.71s-.66,1.51-.66,3.08a4.34,4.34,0,0,0,.71,2.92,4.11,4.11,0,0,0,2.86.72,3.76,3.76,0,0,0,2.7-.7,4.52,4.52,0,0,0,.65-2.9q0-2.41-.63-3.12C110.2,61.07,109.27,60.84,107.83,60.84Z"/><path class="cls-2" d="M133.15,64.77h2v.52c0,1.84-.41,3-1.23,3.44s-2.88.69-6.18.69q-4.44,0-5.64-1.21t-1.21-5.7a21.05,21.05,0,0,1,.27-4.42,3,3,0,0,1,1.56-1.61c1-.56,3.16-.83,6.48-.83,2.25,0,3.77.26,4.55.8s1.17,1.56,1.17,3.09v.37h-2v-.42c0-1.09-.23-1.78-.69-2.09a6.6,6.6,0,0,0-3.13-.47c-2.84,0-4.58.18-5.21.55s-1,1.36-1,3q0,5.68.64,6.66c.42.66,1.86,1,4.33,1a13.45,13.45,0,0,0,4.4-.42c.58-.28.87-1,.87-2.14Z"/><path class="cls-2" d="M141.82,59.69c2.29,0,3.77.3,4.45.91s1,1.92,1,3.95-.34,3.35-1,4-2.16.91-4.45.91-3.76-.3-4.44-.91-1-1.93-1-4,.34-3.34,1-3.95S139.54,59.69,141.82,59.69Zm0,1.15c-1.6,0-2.6.2-3,.6s-.58,1.43-.58,3.11.19,2.72.58,3.12,1.38.6,3,.6,2.61-.2,3-.6.57-1.43.57-3.12-.19-2.72-.57-3.11S143.43,60.84,141.82,60.84Z"/><path class="cls-2" d="M149.53,59.83h1.81l0,1.42,0,0c.7-1.06,2-1.59,4-1.59s3.37.53,3.82,1.59h.05q1.17-1.59,4.26-1.59,4.37,0,4.37,3.41v6.18h-1.81V63a2,2,0,0,0-.58-1.69,3.83,3.83,0,0,0-2.2-.44,4.88,4.88,0,0,0-2.91.61,2.94,2.94,0,0,0-.77,2.36v5.47H157.8V63.1l0-.43q0-1.83-2.73-1.83c-2.46,0-3.7,1-3.7,3.07v5.37h-1.81Z"/><path class="cls-2" d="M170.83,59.83h1.81L172.55,61l0,0c.63-.91,2-1.36,4.07-1.36,1.83,0,3.1.36,3.79,1.07s1,2,1,3.93-.35,3-1.05,3.7-1.94,1-3.72,1c-2,0-3.38-.42-4-1.26h0v5.17h-1.81Zm5.33,1c-1.45,0-2.39.24-2.83.71s-.66,1.51-.66,3.08a4.28,4.28,0,0,0,.71,2.92,4.11,4.11,0,0,0,2.86.72,3.76,3.76,0,0,0,2.7-.7,4.52,4.52,0,0,0,.65-2.9q0-2.41-.63-3.12C178.53,61.07,177.6,60.84,176.16,60.84Z"/><path class="cls-2" d="M185.66,62.48h-1.8a2.35,2.35,0,0,1,1-2.22,13,13,0,0,1,8,.13A2.92,2.92,0,0,1,193.93,63v6.24h-1.82l.15-1h0c-.69.78-2.09,1.17-4.21,1.17q-4.68,0-4.68-2.88a2.55,2.55,0,0,1,1-2.36,7.69,7.69,0,0,1,3.79-.65c2.17,0,3.48.32,3.91,1h0V63.35a2.73,2.73,0,0,0-.58-2.1,4.46,4.46,0,0,0-2.55-.48c-2.22,0-3.33.48-3.33,1.43C185.65,62.25,185.65,62.34,185.66,62.48Zm2.91,2.12a6.92,6.92,0,0,0-2.71.34,1.48,1.48,0,0,0-.63,1.44,1.64,1.64,0,0,0,.62,1.52,5.63,5.63,0,0,0,2.53.37c2.55,0,3.83-.59,3.83-1.78a1.53,1.53,0,0,0-.75-1.5A7.08,7.08,0,0,0,188.57,64.6Z"/><path class="cls-2" d="M196.69,59.83h1.75l-.05,1.28.05,0c.55-1,1.92-1.45,4.12-1.45a6.42,6.42,0,0,1,3.59.71,3.3,3.3,0,0,1,.94,2.73v6.15h-1.82V62.89a1.87,1.87,0,0,0-.6-1.63,4.53,4.53,0,0,0-2.35-.42q-3.81,0-3.81,2.76v5.68h-1.82Z"/><path class="cls-2" d="M218.56,59.83l-3.5,10a7.08,7.08,0,0,1-1.64,2.91,3.76,3.76,0,0,1-2.57.79,6.48,6.48,0,0,1-.87-.07V72.31a6.18,6.18,0,0,0,.64.07c1,0,1.7-.57,2.17-1.81l.35-.93.12-.36h-.69l-4.48-9.45H210l1.9,4.21,1,2.1.47,1,.48,1h0l.33-1,.33-1,.7-2.1,1.39-4.21Z"/></g></g></svg>